{
  "source": "C:\\Users\\Peter\\Desktop\\stuff\\MIUN\\quantitative_research\\video_compression\\videos\\BVI-HD\\BVI-HD_CDVL_videos\\ORIG\\PlasmaAveragePan_1920x1080_60fps.mp4",
  "output": "C:\\Users\\Peter\\Desktop\\stuff\\MIUN\\quantitative_research\\video_compression\\compressed_videos\\BVI-HD\\hevc\\8\\PlasmaAveragePan_1920x1080_60fps_hevc.mp4",
  "codec": "hevc",
  "ok": "Input #0, mov,mp4,m4a,3gp,3g2,mj2, from 'C:\\Users\\Peter\\Desktop\\stuff\\MIUN\\quantitative_research\\video_compression\\videos\\BVI-HD\\BVI-HD_CDVL_videos\\ORIG\\PlasmaAveragePan_1920x1080_60fps.mp4':\n  Metadata:\n    major_brand     : isom\n    minor_version   : 512\n    compatible_brands: isomiso2avc1mp41\n    encoder         : Lavf54.28.101\n  Duration: 00:00:05.00, start: 0.000000, bitrate: 73730 kb/s\n  Stream #0:0[0x1](und): Video: h264 (High 4:4:4 Predictive) (avc1 / 0x31637661), yuv420p(progressive), 1920x1080, 73727 kb/s, 60 fps, 60 tbr, 60 tbn (default)\n    Metadata:\n      handler_name    : VideoHandler\n      vendor_id       : [0][0][0][0]\n[out#0/mp4 @ 000001cfdebd7900] Codec AVOption b:a (set bitrate (in bits/s)) has not been used for any stream. The most likely reason is either wrong type (e.g. a video option with no video streams) or that it is a private option of some decoder which was not actually used for any stream.\nStream mapping:\n  Stream #0:0 -> #0:0 (h264 (native) -> hevc (libx265))\nPress [q] to stop, [?] for help\n[libx265 @ 000001cfdeac2c00] Unknown option: \"aq-mode.\nx265 [info]: HEVC encoder version 4.1+190-8f11c33ac\nx265 [info]: build info [Windows][GCC 15.1.0][64 bit] 10bit\nx265 [info]: using cpu capabilities: MMX2 SSE2Fast LZCNT SSSE3 SSE4.2 AVX FMA3 BMI2 AVX2\nx265 [info]: Main 10 profile, Level-4.1 (Main tier)\nx265 [info]: Thread pool created using 12 threads\nx265 [info]: Slices                              : 1\nx265 [info]: frame threads / pool features       : 3 / wpp(17 rows)\nx265 [info]: Coding QT: max CU size, min CU size : 64 / 8\nx265 [info]: Residual QT: max TU size, max depth : 32 / 1 inter / 1 intra\nx265 [info]: ME / range / subpel / merge         : star / 57 / 3 / 3\nx265 [info]: Keyframe min / max / scenecut / bias  : 25 / 250 / 40 / 5.00 \nx265 [info]: Lookahead / bframes / badapt        : 25 / 4 / 2\nx265 [info]: b-pyramid / weightp / weightb       : 1 / 1 / 0\nx265 [info]: References / ref-limit  cu / depth  : 4 / on / on\nx265 [info]: AQ: mode / str / qg-size / cu-tree  : 2 / 1.0 / 32 / 1\nx265 [info]: Rate Control / qCompress            : ABR-8000 kbps / 0.60\nx265 [info]: VBV/HRD buffer / max-rate / init    : 8000 / 8000 / 0.750\nx265 [info]: tools: rect limit-modes rd=4 psy-rd=2.00 rdoq=2 psy-rdoq=1.00\nx265 [info]: tools: rskip mode=1 signhide tmvp strong-intra-smoothing lslices=4\nx265 [info]: tools: deblock sao dhdr10-info\nOutput #0, mp4, to 'C:\\Users\\Peter\\Desktop\\stuff\\MIUN\\quantitative_research\\video_compression\\compressed_videos\\BVI-HD\\hevc\\8\\PlasmaAveragePan_1920x1080_60fps_hevc.mp4':\n  Metadata:\n    major_brand     : isom\n    minor_version   : 512\n    compatible_brands: isomiso2avc1mp41\n    encoder         : Lavf62.3.100\n  Stream #0:0(und): Video: hevc (hev1 / 0x31766568), yuv420p10le(tv, progressive), 1920x1080, q=2-31, 8000 kb/s, 60 fps, 15360 tbn (default)\n    Metadata:\n      encoder         : Lavc62.11.100 libx265\n      handler_name    : VideoHandler\n      vendor_id       : [0][0][0][0]\n    Side data:\n      cpb: bitrate max/min/avg: 8000000/0/8000000 buffer size: 8000000 vbv_delay: N/A\nframe=    0 fps=0.0 q=0.0 size=       0KiB time=N/A bitrate=N/A speed=N/A elapsed=0:00:00.51    \nframe=    0 fps=0.0 q=0.0 size=       0KiB time=N/A bitrate=N/A speed=N/A elapsed=0:00:01.02    \nframe=    0 fps=0.0 q=0.0 size=       0KiB time=N/A bitrate=N/A speed=N/A elapsed=0:00:01.53    \nframe=    0 fps=0.0 q=0.0 size=       0KiB time=N/A bitrate=N/A speed=N/A elapsed=0:00:02.06    \nframe=    0 fps=0.0 q=0.0 size=       0KiB time=N/A bitrate=N/A speed=N/A elapsed=0:00:02.59    \nframe=    0 fps=0.0 q=0.0 size=       0KiB time=N/A bitrate=N/A speed=N/A elapsed=0:00:03.10    \nframe=    0 fps=0.0 q=0.0 size=       0KiB time=N/A bitrate=N/A speed=N/A elapsed=0:00:03.63    \nframe=    1 fps=0.2 q=29.6 size=       0KiB time=-00:00:00.01 bitrate=N/A speed=N/A elapsed=0:00:04.15    \nframe=    2 fps=0.4 q=37.7 size=       0KiB time=00:00:00.00 bitrate=N/A speed=   0x elapsed=0:00:04.66    \nframe=    3 fps=0.6 q=39.0 size=       0KiB time=00:00:00.01 bitrate=  21.1kbits/s speed=0.00322x elapsed=0:00:05.17    \nframe=    3 fps=0.5 q=39.0 size=       0KiB time=00:00:00.01 bitrate=  21.1kbits/s speed=0.00292x elapsed=0:00:05.70    \nframe=    3 fps=0.5 q=39.0 size=       0KiB time=00:00:00.01 bitrate=  21.1kbits/s speed=0.00268x elapsed=0:00:06.21    \nframe=    4 fps=0.6 q=34.7 size=       0KiB time=00:00:00.03 bitrate=  10.6kbits/s speed=0.00494x elapsed=0:00:06.74    \nframe=    4 fps=0.5 q=34.7 size=       0KiB time=00:00:00.03 bitrate=  10.6kbits/s speed=0.00457x elapsed=0:00:07.29    \nframe=    5 fps=0.6 q=34.2 size=       0KiB time=00:00:00.05 bitrate=   7.0kbits/s speed=0.00641x elapsed=0:00:07.80    \nframe=    6 fps=0.7 q=33.5 size=       0KiB time=00:00:00.06 bitrate=   5.3kbits/s speed=0.00801x elapsed=0:00:08.32    \nframe=    6 fps=0.7 q=33.5 size=       0KiB time=00:00:00.06 bitrate=   5.3kbits/s speed=0.00754x elapsed=0:00:08.84    \nframe=    6 fps=0.6 q=33.5 size=       0KiB time=00:00:00.06 bitrate=   5.3kbits/s speed=0.00711x elapsed=0:00:09.37    \nframe=    7 fps=0.7 q=30.3 size=       0KiB time=00:00:00.08 bitrate=   4.2kbits/s speed=0.00839x elapsed=0:00:09.93    \nframe=    7 fps=0.7 q=30.3 size=       0KiB time=00:00:00.08 bitrate=   4.2kbits/s speed=0.00797x elapsed=0:00:10.45    \nframe=    8 fps=0.7 q=31.3 size=       0KiB time=00:00:00.10 bitrate=   3.5kbits/s speed=0.00911x elapsed=0:00:10.97    \nframe=    8 fps=0.7 q=31.3 size=       0KiB time=00:00:00.10 bitrate=   3.5kbits/s speed=0.0087x elapsed=0:00:11.50    \nframe=    9 fps=0.7 q=28.3 size=       0KiB time=00:00:00.11 bitrate=   3.0kbits/s speed=0.00972x elapsed=0:00:12.00    \nframe=    9 fps=0.7 q=28.3 size=       0KiB time=00:00:00.11 bitrate=   3.0kbits/s speed=0.00931x elapsed=0:00:12.52    \nframe=    9 fps=0.7 q=28.3 size=       0KiB time=00:00:00.11 bitrate=   3.0kbits/s speed=0.00891x elapsed=0:00:13.09    \nframe=   10 fps=0.7 q=28.1 size=       0KiB time=00:00:00.13 bitrate=   2.6kbits/s speed=0.00978x elapsed=0:00:13.63    \nframe=   10 fps=0.7 q=28.1 size=       0KiB time=00:00:00.13 bitrate=   2.6kbits/s speed=0.00942x elapsed=0:00:14.15    \nframe=   10 fps=0.7 q=28.1 size=       0KiB time=00:00:00.13 bitrate=   2.6kbits/s speed=0.00908x elapsed=0:00:14.68    \nframe=   11 fps=0.7 q=25.0 size=       0KiB time=00:00:00.15 bitrate=   2.3kbits/s speed=0.00984x elapsed=0:00:15.24    \nframe=   11 fps=0.7 q=25.0 size=       0KiB time=00:00:00.15 bitrate=   2.3kbits/s speed=0.00946x elapsed=0:00:15.86    \nframe=   11 fps=0.7 q=25.0 size=       0KiB time=00:00:00.15 bitrate=   2.3kbits/s speed=0.00914x elapsed=0:00:16.40    \nframe=   12 fps=0.7 q=27.7 size=       0KiB time=00:00:00.16 bitrate=   2.1kbits/s speed=0.00984x elapsed=0:00:16.93    \nframe=   12 fps=0.7 q=27.7 size=       0KiB time=00:00:00.16 bitrate=   2.1kbits/s speed=0.00954x elapsed=0:00:17.47    \nframe=   12 fps=0.7 q=27.7 size=       0KiB time=00:00:00.16 bitrate=   2.1kbits/s speed=0.00926x elapsed=0:00:17.99    \nframe=   13 fps=0.7 q=28.0 size=       0KiB time=00:00:00.18 bitrate=   1.9kbits/s speed=0.0099x elapsed=0:00:18.51    \nframe=   13 fps=0.7 q=28.0 size=       0KiB time=00:00:00.18 bitrate=   1.9kbits/s speed=0.00962x elapsed=0:00:19.05    \nframe=   14 fps=0.7 q=28.0 size=       0KiB time=00:00:00.20 bitrate=   1.8kbits/s speed=0.0102x elapsed=0:00:19.57    \nframe=   14 fps=0.7 q=28.0 size=       0KiB time=00:00:00.20 bitrate=   1.8kbits/s speed=0.00996x elapsed=0:00:20.07    \nframe=   14 fps=0.7 q=28.0 size=       0KiB time=00:00:00.20 bitrate=   1.8kbits/s speed=0.00971x elapsed=0:00:20.60    \nframe=   15 fps=0.7 q=24.9 size=       0KiB time=00:00:00.21 bitrate=   1.6kbits/s speed=0.0103x elapsed=0:00:21.12    \nframe=   15 fps=0.7 q=24.9 size=       0KiB time=00:00:00.21 bitrate=   1.6kbits/s speed=0.01x elapsed=0:00:21.64    \nframe=   16 fps=0.7 q=26.5 size=       0KiB time=00:00:00.23 bitrate=   1.5kbits/s speed=0.0105x elapsed=0:00:22.20    \nframe=   17 fps=0.7 q=28.0 size=       0KiB time=00:00:00.25 bitrate=   1.4kbits/s speed=0.011x elapsed=0:00:22.75    \nframe=   17 fps=0.7 q=28.0 size=       0KiB time=00:00:00.25 bitrate=   1.4kbits/s speed=0.0107x elapsed=0:00:23.27    \nframe=   17 fps=0.7 q=28.0 size=       0KiB time=00:00:00.25 bitrate=   1.4kbits/s speed=0.0105x elapsed=0:00:23.78    \nframe=   18 fps=0.7 q=24.6 size=       0KiB time=00:00:00.26 bitrate=   1.3kbits/s speed=0.011x elapsed=0:00:24.31    \nframe=   18 fps=0.7 q=24.6 size=       0KiB time=00:00:00.26 bitrate=   1.3kbits/s speed=0.0107x elapsed=0:00:24.83    \nframe=   18 fps=0.7 q=24.6 size=       0KiB time=00:00:00.26 bitrate=   1.3kbits/s speed=0.0105x elapsed=0:00:25.37    \nframe=   18 fps=0.7 q=24.6 size=       0KiB time=00:00:00.26 bitrate=   1.3kbits/s speed=0.0103x elapsed=0:00:25.89    \nframe=   19 fps=0.7 q=26.7 size=       0KiB time=00:00:00.28 bitrate=   1.2kbits/s speed=0.0107x elapsed=0:00:26.41    \nframe=   19 fps=0.7 q=26.7 size=       0KiB time=00:00:00.28 bitrate=   1.2kbits/s speed=0.0105x elapsed=0:00:26.92    \nframe=   20 fps=0.7 q=28.0 size=       0KiB time=00:00:00.30 bitrate=   1.2kbits/s speed=0.0109x elapsed=0:00:27.44    \nframe=   20 fps=0.7 q=28.0 size=       0KiB time=00:00:00.30 bitrate=   1.2kbits/s speed=0.0107x elapsed=0:00:27.96    \nframe=   21 fps=0.7 q=24.5 size=       0KiB time=00:00:00.31 bitrate=   1.1kbits/s speed=0.0111x elapsed=0:00:28.50    \nframe=   21 fps=0.7 q=24.5 size=       0KiB time=00:00:00.31 bitrate=   1.1kbits/s speed=0.0109x elapsed=0:00:29.03    \nframe=   21 fps=0.7 q=24.5 size=       0KiB time=00:00:00.31 bitrate=   1.1kbits/s speed=0.0107x elapsed=0:00:29.57    \nframe=   22 fps=0.7 q=26.5 size=     256KiB time=00:00:00.33 bitrate=6292.5kbits/s speed=0.0111x elapsed=0:00:30.11    \nframe=   22 fps=0.7 q=26.5 size=     256KiB time=00:00:00.33 bitrate=6292.5kbits/s speed=0.0109x elapsed=0:00:30.63    \nframe=   22 fps=0.7 q=26.5 size=     256KiB time=00:00:00.33 bitrate=6292.5kbits/s speed=0.0107x elapsed=0:00:31.15    \nframe=   23 fps=0.7 q=28.0 size=     256KiB time=00:00:00.35 bitrate=5992.9kbits/s speed=0.011x elapsed=0:00:31.70    \nframe=   23 fps=0.7 q=28.0 size=     256KiB time=00:00:00.35 bitrate=5992.9kbits/s speed=0.0109x elapsed=0:00:32.22    \nframe=   24 fps=0.7 q=27.8 size=     256KiB time=00:00:00.36 bitrate=5720.5kbits/s speed=0.0112x elapsed=0:00:32.76    \nframe=   24 fps=0.7 q=27.8 size=     256KiB time=00:00:00.36 bitrate=5720.5kbits/s speed=0.011x elapsed=0:00:33.29    \nframe=   24 fps=0.7 q=27.8 size=     256KiB time=00:00:00.36 bitrate=5720.5kbits/s speed=0.0108x elapsed=0:00:33.83    \nframe=   24 fps=0.7 q=27.8 size=     256KiB time=00:00:00.36 bitrate=5720.5kbits/s speed=0.0107x elapsed=0:00:34.36    \nframe=   25 fps=0.7 q=24.5 size=     256KiB time=00:00:00.38 bitrate=5471.8kbits/s speed=0.011x elapsed=0:00:34.89    \nframe=   25 fps=0.7 q=24.5 size=     256KiB time=00:00:00.38 bitrate=5471.8kbits/s speed=0.0108x elapsed=0:00:35.40    \nframe=   26 fps=0.7 q=26.5 size=     256KiB time=00:00:00.40 bitrate=5243.8kbits/s speed=0.0111x elapsed=0:00:35.93    \nframe=   27 fps=0.7 q=27.8 size=     256KiB time=00:00:00.41 bitrate=5034.0kbits/s speed=0.0114x elapsed=0:00:36.44    \nframe=   27 fps=0.7 q=27.8 size=     256KiB time=00:00:00.41 bitrate=5034.0kbits/s speed=0.0113x elapsed=0:00:36.96    \nframe=   28 fps=0.7 q=27.6 size=     256KiB time=00:00:00.43 bitrate=4840.4kbits/s speed=0.0116x elapsed=0:00:37.48    \nframe=   28 fps=0.7 q=27.6 size=     256KiB time=00:00:00.43 bitrate=4840.4kbits/s speed=0.0114x elapsed=0:00:38.03    \nframe=   29 fps=0.8 q=27.0 size=     256KiB time=00:00:00.45 bitrate=4661.1kbits/s speed=0.0117x elapsed=0:00:38.57    \nframe=   29 fps=0.7 q=27.0 size=     256KiB time=00:00:00.45 bitrate=4661.1kbits/s speed=0.0115x elapsed=0:00:39.11    \nframe=   29 fps=0.7 q=27.0 size=     256KiB time=00:00:00.45 bitrate=4661.1kbits/s speed=0.0113x elapsed=0:00:39.66    \nframe=   30 fps=0.7 q=23.4 size=     256KiB time=00:00:00.46 bitrate=4494.6kbits/s speed=0.0116x elapsed=0:00:40.19    \nframe=   30 fps=0.7 q=23.4 size=     256KiB time=00:00:00.46 bitrate=4494.6kbits/s speed=0.0115x elapsed=0:00:40.73    \nframe=   31 fps=0.8 q=26.0 size=     256KiB time=00:00:00.48 bitrate=4339.7kbits/s speed=0.0117x elapsed=0:00:41.26    \nframe=   31 fps=0.7 q=26.0 size=     256KiB time=00:00:00.48 bitrate=4339.7kbits/s speed=0.0116x elapsed=0:00:41.78    \nframe=   31 fps=0.7 q=26.0 size=     256KiB time=00:00:00.48 bitrate=4339.7kbits/s speed=0.0114x elapsed=0:00:42.30    \nframe=   32 fps=0.7 q=26.7 size=     256KiB time=00:00:00.50 bitrate=4195.0kbits/s speed=0.0117x elapsed=0:00:42.83    \nframe=   32 fps=0.7 q=26.7 size=     256KiB time=00:00:00.50 bitrate=4195.0kbits/s speed=0.0115x elapsed=0:00:43.38    \nframe=   33 fps=0.8 q=26.8 size=     256KiB time=00:00:00.51 bitrate=4059.7kbits/s speed=0.0118x elapsed=0:00:43.90    \nframe=   34 fps=0.8 q=26.6 size=     256KiB time=00:00:00.53 bitrate=3932.8kbits/s speed=0.012x elapsed=0:00:44.40    \nframe=   34 fps=0.8 q=26.6 size=     256KiB time=00:00:00.53 bitrate=3932.8kbits/s speed=0.0119x elapsed=0:00:44.92    \nframe=   34 fps=0.7 q=26.6 size=     256KiB time=00:00:00.53 bitrate=3932.8kbits/s speed=0.0117x elapsed=0:00:45.48    \nframe=   35 fps=0.8 q=23.3 size=     256KiB time=00:00:00.55 bitrate=3813.6kbits/s speed=0.0119x elapsed=0:00:46.06    \nframe=   35 fps=0.8 q=23.3 size=     256KiB time=00:00:00.55 bitrate=3813.6kbits/s speed=0.0118x elapsed=0:00:46.61    \nframe=   36 fps=0.8 q=25.1 size=     256KiB time=00:00:00.56 bitrate=3701.5kbits/s speed=0.012x elapsed=0:00:47.16    \nframe=   36 fps=0.8 q=25.1 size=     256KiB time=00:00:00.56 bitrate=3701.5kbits/s speed=0.0119x elapsed=0:00:47.68    \nframe=   36 fps=0.7 q=25.1 size=     256KiB time=00:00:00.56 bitrate=3701.5kbits/s speed=0.0118x elapsed=0:00:48.19    \nframe=   36 fps=0.7 q=25.1 size=     256KiB time=00:00:00.56 bitrate=3701.5kbits/s speed=0.0116x elapsed=0:00:48.73    \nframe=   37 fps=0.8 q=26.7 size=     512KiB time=00:00:00.58 bitrate=7190.8kbits/s speed=0.0118x elapsed=0:00:49.25    \nframe=   38 fps=0.8 q=26.7 size=     512KiB time=00:00:00.60 bitrate=6991.1kbits/s speed=0.0121x elapsed=0:00:49.78    \nframe=   38 fps=0.8 q=26.7 size=     512KiB time=00:00:00.60 bitrate=6991.1kbits/s speed=0.0119x elapsed=0:00:50.32    \nframe=   38 fps=0.7 q=26.7 size=     512KiB time=00:00:00.60 bitrate=6991.1kbits/s speed=0.0118x elapsed=0:00:50.84    \nframe=   39 fps=0.8 q=22.9 size=     512KiB time=00:00:00.61 bitrate=6802.1kbits/s speed=0.012x elapsed=0:00:51.38    \nframe=   39 fps=0.8 q=22.9 size=     512KiB time=00:00:00.61 bitrate=6802.1kbits/s speed=0.0119x elapsed=0:00:51.89    \nframe=   40 fps=0.8 q=25.1 size=     512KiB time=00:00:00.63 bitrate=6623.1kbits/s speed=0.0121x elapsed=0:00:52.41    \nframe=   40 fps=0.8 q=25.1 size=     512KiB time=00:00:00.63 bitrate=6623.1kbits/s speed=0.012x elapsed=0:00:52.92    \nframe=   40 fps=0.7 q=25.1 size=     512KiB time=00:00:00.63 bitrate=6623.1kbits/s speed=0.0119x elapsed=0:00:53.44    \nframe=   41 fps=0.8 q=27.2 size=     512KiB time=00:00:00.65 bitrate=6453.3kbits/s speed=0.012x elapsed=0:00:53.97    \nframe=   42 fps=0.8 q=26.7 size=     512KiB time=00:00:00.66 bitrate=6292.0kbits/s speed=0.0122x elapsed=0:00:54.48    \nframe=   42 fps=0.8 q=26.7 size=     512KiB time=00:00:00.66 bitrate=6292.0kbits/s speed=0.0121x elapsed=0:00:55.01    \nframe=   43 fps=0.8 q=22.9 size=     512KiB time=00:00:00.68 bitrate=6138.5kbits/s speed=0.0123x elapsed=0:00:55.53    \nframe=   43 fps=0.8 q=22.9 size=     512KiB time=00:00:00.68 bitrate=6138.5kbits/s speed=0.0122x elapsed=0:00:56.08    \nframe=   44 fps=0.8 q=25.7 size=     512KiB time=00:00:00.70 bitrate=5992.4kbits/s speed=0.0124x elapsed=0:00:56.61    \nframe=   45 fps=0.8 q=27.4 size=     512KiB time=00:00:00.71 bitrate=5853.0kbits/s speed=0.0125x elapsed=0:00:57.12    \nframe=   46 fps=0.8 q=22.3 size=     512KiB time=00:00:00.73 bitrate=5720.0kbits/s speed=0.0127x elapsed=0:00:57.64    \nframe=   46 fps=0.8 q=22.3 size=     512KiB time=00:00:00.73 bitrate=5720.0kbits/s speed=0.0126x elapsed=0:00:58.16    \nframe=   47 fps=0.8 q=25.7 size=     512KiB time=00:00:00.75 bitrate=5592.9kbits/s speed=0.0128x elapsed=0:00:58.67    \nframe=   47 fps=0.8 q=25.7 size=     512KiB time=00:00:00.75 bitrate=5592.9kbits/s speed=0.0127x elapsed=0:00:59.19    \nframe=   47 fps=0.8 q=25.7 size=     512KiB time=00:00:00.75 bitrate=5592.9kbits/s speed=0.0126x elapsed=0:00:59.71    \nframe=   48 fps=0.8 q=27.5 size=     512KiB time=00:00:00.76 bitrate=5471.3kbits/s speed=0.0127x elapsed=0:01:00.24    \nframe=   49 fps=0.8 q=27.1 size=     512KiB time=00:00:00.78 bitrate=5354.9kbits/s speed=0.0129x elapsed=0:01:00.77    \nframe=   49 fps=0.8 q=27.1 size=     512KiB time=00:00:00.78 bitrate=5354.9kbits/s speed=0.0128x elapsed=0:01:01.28    \nframe=   50 fps=0.8 q=23.0 size=     512KiB time=00:00:00.80 bitrate=5243.3kbits/s speed=0.0129x elapsed=0:01:01.80    \nframe=   51 fps=0.8 q=25.4 size=     512KiB time=00:00:00.81 bitrate=5136.3kbits/s speed=0.0131x elapsed=0:01:02.32    \nframe=   51 fps=0.8 q=25.4 size=     512KiB time=00:00:00.81 bitrate=5136.3kbits/s speed=0.013x elapsed=0:01:02.82    \nframe=   52 fps=0.8 q=27.2 size=     768KiB time=00:00:00.83 bitrate=7550.2kbits/s speed=0.0132x elapsed=0:01:03.35    \nframe=   52 fps=0.8 q=27.2 size=     768KiB time=00:00:00.83 bitrate=7550.2kbits/s speed=0.013x elapsed=0:01:03.87    \nframe=   52 fps=0.8 q=27.2 size=     768KiB time=00:00:00.83 bitrate=7550.2kbits/s speed=0.0129x elapsed=0:01:04.37    \nframe=   53 fps=0.8 q=27.2 size=     768KiB time=00:00:00.85 bitrate=7402.1kbits/s speed=0.0131x elapsed=0:01:04.90    \nframe=   53 fps=0.8 q=27.2 size=     768KiB time=00:00:00.85 bitrate=7402.1kbits/s speed=0.013x elapsed=0:01:05.41    \nframe=   54 fps=0.8 q=23.2 size=     768KiB time=00:00:00.86 bitrate=7259.8kbits/s speed=0.0131x elapsed=0:01:05.94    \nframe=   55 fps=0.8 q=25.3 size=     768KiB time=00:00:00.88 bitrate=7122.8kbits/s speed=0.0133x elapsed=0:01:06.46    \nframe=   55 fps=0.8 q=25.3 size=     768KiB time=00:00:00.88 bitrate=7122.8kbits/s speed=0.0132x elapsed=0:01:06.99    \nframe=   55 fps=0.8 q=25.3 size=     768KiB time=00:00:00.88 bitrate=7122.8kbits/s speed=0.0131x elapsed=0:01:07.51    \nframe=   56 fps=0.8 q=27.3 size=     768KiB time=00:00:00.90 bitrate=6990.9kbits/s speed=0.0132x elapsed=0:01:08.02    \nframe=   57 fps=0.8 q=27.5 size=     768KiB time=00:00:00.91 bitrate=6863.8kbits/s speed=0.0134x elapsed=0:01:08.53    \nframe=   57 fps=0.8 q=27.5 size=     768KiB time=00:00:00.91 bitrate=6863.8kbits/s speed=0.0133x elapsed=0:01:09.05    \nframe=   58 fps=0.8 q=23.4 size=     768KiB time=00:00:00.93 bitrate=6741.2kbits/s speed=0.0134x elapsed=0:01:09.58    \nframe=   59 fps=0.8 q=25.5 size=     768KiB time=00:00:00.95 bitrate=6623.0kbits/s speed=0.0136x elapsed=0:01:10.09    \nframe=   60 fps=0.8 q=27.4 size=     768KiB time=00:00:00.96 bitrate=6508.8kbits/s speed=0.0137x elapsed=0:01:10.65    \nframe=   60 fps=0.8 q=27.4 size=     768KiB time=00:00:00.96 bitrate=6508.8kbits/s speed=0.0136x elapsed=0:01:11.22    \nframe=   60 fps=0.8 q=27.4 size=     768KiB time=00:00:00.96 bitrate=6508.8kbits/s speed=0.0135x elapsed=0:01:11.75    \nframe=   61 fps=0.8 q=27.4 size=     768KiB time=00:00:00.98 bitrate=6398.5kbits/s speed=0.0136x elapsed=0:01:12.30    \nframe=   61 fps=0.8 q=27.4 size=     768KiB time=00:00:00.98 bitrate=6398.5kbits/s speed=0.0135x elapsed=0:01:12.84    \nframe=   61 fps=0.8 q=27.4 size=     768KiB time=00:00:00.98 bitrate=6398.5kbits/s speed=0.0134x elapsed=0:01:13.36    \nframe=   62 fps=0.8 q=23.4 size=     768KiB time=00:00:01.00 bitrate=6291.8kbits/s speed=0.0135x elapsed=0:01:13.87    \nframe=   62 fps=0.8 q=23.4 size=     768KiB time=00:00:01.00 bitrate=6291.8kbits/s speed=0.0134x elapsed=0:01:14.40    \nframe=   63 fps=0.8 q=25.0 size=     768KiB time=00:00:01.01 bitrate=6188.7kbits/s speed=0.0136x elapsed=0:01:14.92    \nframe=   64 fps=0.8 q=27.2 size=     768KiB time=00:00:01.03 bitrate=6088.8kbits/s speed=0.0137x elapsed=0:01:15.44    \nframe=   65 fps=0.9 q=27.3 size=     768KiB time=00:00:01.05 bitrate=5992.2kbits/s speed=0.0138x elapsed=0:01:15.95    \nframe=   65 fps=0.8 q=27.3 size=     768KiB time=00:00:01.05 bitrate=5992.2kbits/s speed=0.0137x elapsed=0:01:16.48    \nframe=   66 fps=0.9 q=22.8 size=     768KiB time=00:00:01.06 bitrate=5898.6kbits/s speed=0.0138x elapsed=0:01:17.01    \nframe=   66 fps=0.9 q=22.8 size=     768KiB time=00:00:01.06 bitrate=5898.6kbits/s speed=0.0138x elapsed=0:01:17.56    \nframe=   66 fps=0.8 q=22.8 size=     768KiB time=00:00:01.06 bitrate=5898.6kbits/s speed=0.0137x elapsed=0:01:18.12    \nframe=   67 fps=0.9 q=24.8 size=     768KiB time=00:00:01.08 bitrate=5807.8kbits/s speed=0.0138x elapsed=0:01:18.66    \nframe=   68 fps=0.9 q=27.3 size=    1024KiB time=00:00:01.10 bitrate=7626.3kbits/s speed=0.0139x elapsed=0:01:19.17    \nframe=   68 fps=0.9 q=27.3 size=    1024KiB time=00:00:01.10 bitrate=7626.3kbits/s speed=0.0138x elapsed=0:01:19.68    \nframe=   68 fps=0.8 q=27.3 size=    1024KiB time=00:00:01.10 bitrate=7626.3kbits/s speed=0.0137x elapsed=0:01:20.21    \nframe=   69 fps=0.9 q=27.2 size=    1024KiB time=00:00:01.11 bitrate=7512.5kbits/s speed=0.0138x elapsed=0:01:20.72    \nframe=   69 fps=0.8 q=27.2 size=    1024KiB time=00:00:01.11 bitrate=7512.5kbits/s speed=0.0137x elapsed=0:01:21.25    \nframe=   70 fps=0.9 q=23.6 size=    1024KiB time=00:00:01.13 bitrate=7402.0kbits/s speed=0.0139x elapsed=0:01:21.76    \nframe=   70 fps=0.9 q=23.6 size=    1024KiB time=00:00:01.13 bitrate=7402.0kbits/s speed=0.0138x elapsed=0:01:22.28    \nframe=   71 fps=0.9 q=24.8 size=    1024KiB time=00:00:01.15 bitrate=7294.7kbits/s speed=0.0139x elapsed=0:01:22.80    \nframe=   71 fps=0.9 q=24.8 size=    1024KiB time=00:00:01.15 bitrate=7294.7kbits/s speed=0.0138x elapsed=0:01:23.33    \nframe=   71 fps=0.8 q=24.8 size=    1024KiB time=00:00:01.15 bitrate=7294.7kbits/s speed=0.0137x elapsed=0:01:23.84    \nframe=   72 fps=0.9 q=27.1 size=    1024KiB time=00:00:01.16 bitrate=7190.5kbits/s speed=0.0138x elapsed=0:01:24.37    \nframe=   72 fps=0.8 q=27.1 size=    1024KiB time=00:00:01.16 bitrate=7190.5kbits/s speed=0.0137x elapsed=0:01:24.89    \nframe=   73 fps=0.9 q=27.1 size=    1024KiB time=00:00:01.18 bitrate=7089.3kbits/s speed=0.0139x elapsed=0:01:25.41    \nframe=   74 fps=0.9 q=23.4 size=    1024KiB time=00:00:01.20 bitrate=6990.8kbits/s speed=0.014x elapsed=0:01:25.94    \nframe=   74 fps=0.9 q=23.4 size=    1024KiB time=00:00:01.20 bitrate=6990.8kbits/s speed=0.0139x elapsed=0:01:26.46    \nframe=   75 fps=0.9 q=25.9 size=    1024KiB time=00:00:01.21 bitrate=6895.0kbits/s speed=0.014x elapsed=0:01:26.97    \nframe=   75 fps=0.9 q=25.9 size=    1024KiB time=00:00:01.21 bitrate=6895.0kbits/s speed=0.0139x elapsed=0:01:27.49    \nframe=   76 fps=0.9 q=27.1 size=    1024KiB time=00:00:01.23 bitrate=6801.9kbits/s speed=0.014x elapsed=0:01:28.03    \nframe=   76 fps=0.9 q=27.1 size=    1024KiB time=00:00:01.23 bitrate=6801.9kbits/s speed=0.0139x elapsed=0:01:28.55    \nframe=   77 fps=0.9 q=27.1 size=    1024KiB time=00:00:01.25 bitrate=6711.2kbits/s speed=0.014x elapsed=0:01:29.07    \nframe=   77 fps=0.9 q=27.1 size=    1024KiB time=00:00:01.25 bitrate=6711.2kbits/s speed=0.014x elapsed=0:01:29.59    \nframe=   78 fps=0.9 q=27.1 size=    1024KiB time=00:00:01.26 bitrate=6622.9kbits/s speed=0.0141x elapsed=0:01:30.14    \nframe=   78 fps=0.9 q=27.1 size=    1024KiB time=00:00:01.26 bitrate=6622.9kbits/s speed=0.014x elapsed=0:01:30.65    \nframe=   78 fps=0.9 q=27.1 size=    1024KiB time=00:00:01.26 bitrate=6622.9kbits/s speed=0.0139x elapsed=0:01:31.18    \nframe=   79 fps=0.9 q=23.9 size=    1024KiB time=00:00:01.28 bitrate=6536.9kbits/s speed=0.014x elapsed=0:01:31.72    \nframe=   79 fps=0.9 q=23.9 size=    1024KiB time=00:00:01.28 bitrate=6536.9kbits/s speed=0.0139x elapsed=0:01:32.24    \nframe=   80 fps=0.9 q=25.4 size=    1024KiB time=00:00:01.30 bitrate=6453.0kbits/s speed=0.014x elapsed=0:01:32.75    \nframe=   81 fps=0.9 q=27.0 size=    1024KiB time=00:00:01.31 bitrate=6371.4kbits/s speed=0.0141x elapsed=0:01:33.28    \nframe=   81 fps=0.9 q=27.0 size=    1024KiB time=00:00:01.31 bitrate=6371.4kbits/s speed=0.014x elapsed=0:01:33.80    \nframe=   82 fps=0.9 q=27.1 size=    1024KiB time=00:00:01.33 bitrate=6291.7kbits/s speed=0.0141x elapsed=0:01:34.31    \nframe=   82 fps=0.9 q=27.1 size=    1024KiB time=00:00:01.33 bitrate=6291.7kbits/s speed=0.0141x elapsed=0:01:34.86    \nframe=   83 fps=0.9 q=23.9 size=    1280KiB time=00:00:01.35 bitrate=7767.5kbits/s speed=0.0142x elapsed=0:01:35.39    \nframe=   84 fps=0.9 q=25.3 size=    1280KiB time=00:00:01.36 bitrate=7672.8kbits/s speed=0.0142x elapsed=0:01:35.91    \nframe=   84 fps=0.9 q=25.3 size=    1280KiB time=00:00:01.36 bitrate=7672.8kbits/s speed=0.0142x elapsed=0:01:36.43    \nframe=   84 fps=0.9 q=25.3 size=    1280KiB time=00:00:01.36 bitrate=7672.8kbits/s speed=0.0141x elapsed=0:01:36.95    \nframe=   85 fps=0.9 q=27.3 size=    1280KiB time=00:00:01.38 bitrate=7580.3kbits/s speed=0.0142x elapsed=0:01:37.47    \nframe=   85 fps=0.9 q=27.3 size=    1280KiB time=00:00:01.38 bitrate=7580.3kbits/s speed=0.0141x elapsed=0:01:37.99    \nframe=   85 fps=0.9 q=27.3 size=    1280KiB time=00:00:01.38 bitrate=7580.3kbits/s speed=0.014x elapsed=0:01:38.52    \nframe=   86 fps=0.9 q=27.1 size=    1280KiB time=00:00:01.40 bitrate=7490.1kbits/s speed=0.0141x elapsed=0:01:39.03    \nframe=   86 fps=0.9 q=27.1 size=    1280KiB time=00:00:01.40 bitrate=7490.1kbits/s speed=0.0141x elapsed=0:01:39.56    \nframe=   87 fps=0.9 q=23.7 size=    1280KiB time=00:00:01.41 bitrate=7402.0kbits/s speed=0.0142x elapsed=0:01:40.08    \nframe=   87 fps=0.9 q=23.7 size=    1280KiB time=00:00:01.41 bitrate=7402.0kbits/s speed=0.0141x elapsed=0:01:40.60    \nframe=   88 fps=0.9 q=25.8 size=    1280KiB time=00:00:01.43 bitrate=7315.9kbits/s speed=0.0142x elapsed=0:01:41.10    \nframe=   88 fps=0.9 q=25.8 size=    1280KiB time=00:00:01.43 bitrate=7315.9kbits/s speed=0.0141x elapsed=0:01:41.63    \nframe=   89 fps=0.9 q=26.9 size=    1280KiB time=00:00:01.45 bitrate=7231.8kbits/s speed=0.0142x elapsed=0:01:42.16    \nframe=   90 fps=0.9 q=27.0 size=    1280KiB time=00:00:01.46 bitrate=7149.6kbits/s speed=0.0143x elapsed=0:01:42.67    \nframe=   90 fps=0.9 q=27.0 size=    1280KiB time=00:00:01.46 bitrate=7149.6kbits/s speed=0.0142x elapsed=0:01:43.19    \nframe=   90 fps=0.9 q=27.0 size=    1280KiB time=00:00:01.46 bitrate=7149.6kbits/s speed=0.0141x elapsed=0:01:43.74    \nframe=   91 fps=0.9 q=23.9 size=    1280KiB time=00:00:01.48 bitrate=7069.3kbits/s speed=0.0142x elapsed=0:01:44.31    \nframe=   91 fps=0.9 q=23.9 size=    1280KiB time=00:00:01.48 bitrate=7069.3kbits/s speed=0.0141x elapsed=0:01:44.83    \nframe=   91 fps=0.9 q=23.9 size=    1280KiB time=00:00:01.48 bitrate=7069.3kbits/s speed=0.0141x elapsed=0:01:45.37    \nframe=   92 fps=0.9 q=25.7 size=    1280KiB time=00:00:01.50 bitrate=6990.7kbits/s speed=0.0142x elapsed=0:01:45.89    \nframe=   92 fps=0.9 q=25.7 size=    1280KiB time=00:00:01.50 bitrate=6990.7kbits/s speed=0.0141x elapsed=0:01:46.41    \nframe=   93 fps=0.9 q=26.8 size=    1280KiB time=00:00:01.51 bitrate=6913.9kbits/s speed=0.0142x elapsed=0:01:46.92    \nframe=   93 fps=0.9 q=26.8 size=    1280KiB time=00:00:01.51 bitrate=6913.9kbits/s speed=0.0141x elapsed=0:01:47.44    \nframe=   94 fps=0.9 q=26.9 size=    1280KiB time=00:00:01.53 bitrate=6838.8kbits/s speed=0.0142x elapsed=0:01:47.96    \nframe=   94 fps=0.9 q=26.9 size=    1280KiB time=00:00:01.53 bitrate=6838.8kbits/s speed=0.0141x elapsed=0:01:48.47    \nframe=   95 fps=0.9 q=23.4 size=    1280KiB time=00:00:01.55 bitrate=6765.2kbits/s speed=0.0142x elapsed=0:01:48.99    \nframe=   96 fps=0.9 q=25.6 size=    1280KiB time=00:00:01.56 bitrate=6693.3kbits/s speed=0.0143x elapsed=0:01:49.50    \nframe=   96 fps=0.9 q=25.6 size=    1280KiB time=00:00:01.56 bitrate=6693.3kbits/s speed=0.0142x elapsed=0:01:50.02    \nframe=   97 fps=0.9 q=27.0 size=    1280KiB time=00:00:01.58 bitrate=6622.8kbits/s speed=0.0143x elapsed=0:01:50.54    \nframe=   97 fps=0.9 q=27.0 size=    1280KiB time=00:00:01.58 bitrate=6622.8kbits/s speed=0.0143x elapsed=0:01:51.05    \nframe=   98 fps=0.9 q=27.0 size=    1280KiB time=00:00:01.60 bitrate=6553.8kbits/s speed=0.0143x elapsed=0:01:51.56    \nframe=   98 fps=0.9 q=27.0 size=    1280KiB time=00:00:01.60 bitrate=6553.8kbits/s speed=0.0143x elapsed=0:01:52.09    \nframe=   98 fps=0.9 q=27.0 size=    1280KiB time=00:00:01.60 bitrate=6553.8kbits/s speed=0.0142x elapsed=0:01:52.61    \nframe=   99 fps=0.9 q=23.8 size=    1280KiB time=00:00:01.61 bitrate=6486.3kbits/s speed=0.0143x elapsed=0:01:53.13    \nframe=   99 fps=0.9 q=23.8 size=    1280KiB time=00:00:01.61 bitrate=6486.3kbits/s speed=0.0142x elapsed=0:01:53.65    \nframe=  100 fps=0.9 q=27.0 size=    1536KiB time=00:00:01.63 bitrate=7704.0kbits/s speed=0.0143x elapsed=0:01:54.17    \nframe=  101 fps=0.9 q=23.8 size=    1536KiB time=00:00:01.65 bitrate=7626.2kbits/s speed=0.0144x elapsed=0:01:54.68    \nframe=  101 fps=0.9 q=23.8 size=    1536KiB time=00:00:01.65 bitrate=7626.2kbits/s speed=0.0143x elapsed=0:01:55.22    \nframe=  102 fps=0.9 q=25.7 size=    1536KiB time=00:00:01.66 bitrate=7550.0kbits/s speed=0.0144x elapsed=0:01:55.75    \nframe=  102 fps=0.9 q=25.7 size=    1536KiB time=00:00:01.66 bitrate=7550.0kbits/s speed=0.0143x elapsed=0:01:56.27    \nframe=  103 fps=0.9 q=27.3 size=    1536KiB time=00:00:01.68 bitrate=7475.2kbits/s speed=0.0144x elapsed=0:01:56.78    \nframe=  103 fps=0.9 q=27.3 size=    1536KiB time=00:00:01.68 bitrate=7475.2kbits/s speed=0.0143x elapsed=0:01:57.30    \nframe=  104 fps=0.9 q=27.2 size=    1536KiB time=00:00:01.70 bitrate=7401.9kbits/s speed=0.0144x elapsed=0:01:57.81    \nframe=  104 fps=0.9 q=27.2 size=    1536KiB time=00:00:01.70 bitrate=7401.9kbits/s speed=0.0144x elapsed=0:01:58.33    \nframe=  105 fps=0.9 q=24.5 size=    1536KiB time=00:00:01.71 bitrate=7330.1kbits/s speed=0.0144x elapsed=0:01:58.85    \nframe=  105 fps=0.9 q=24.5 size=    1536KiB time=00:00:01.71 bitrate=7330.1kbits/s speed=0.0144x elapsed=0:01:59.37    \nframe=  106 fps=0.9 q=26.0 size=    1536KiB time=00:00:01.73 bitrate=7259.6kbits/s speed=0.0145x elapsed=0:01:59.89    \nframe=  106 fps=0.9 q=26.0 size=    1536KiB time=00:00:01.73 bitrate=7259.6kbits/s speed=0.0144x elapsed=0:02:00.41    \nframe=  106 fps=0.9 q=26.0 size=    1536KiB time=00:00:01.73 bitrate=7259.6kbits/s speed=0.0143x elapsed=0:02:00.95    \nframe=  107 fps=0.9 q=27.1 size=    1536KiB time=00:00:01.75 bitrate=7190.4kbits/s speed=0.0144x elapsed=0:02:01.47    \nframe=  107 fps=0.9 q=27.1 size=    1536KiB time=00:00:01.75 bitrate=7190.4kbits/s speed=0.0143x elapsed=0:02:01.99    \nframe=  108 fps=0.9 q=27.3 size=    1536KiB time=00:00:01.76 bitrate=7122.6kbits/s speed=0.0144x elapsed=0:02:02.50    \nframe=  108 fps=0.9 q=27.3 size=    1536KiB time=00:00:01.76 bitrate=7122.6kbits/s speed=0.0144x elapsed=0:02:03.05    \nframe=  109 fps=0.9 q=24.6 size=    1536KiB time=00:00:01.78 bitrate=7056.0kbits/s speed=0.0144x elapsed=0:02:03.58    \nframe=  109 fps=0.9 q=24.6 size=    1536KiB time=00:00:01.78 bitrate=7056.0kbits/s speed=0.0144x elapsed=0:02:04.09    \nframe=  110 fps=0.9 q=26.0 size=    1536KiB time=00:00:01.80 bitrate=6990.7kbits/s speed=0.0144x elapsed=0:02:04.62    \nframe=  110 fps=0.9 q=26.0 size=    1536KiB time=00:00:01.80 bitrate=6990.7kbits/s speed=0.0144x elapsed=0:02:05.14    \nframe=  111 fps=0.9 q=27.4 size=    1536KiB time=00:00:01.81 bitrate=6926.6kbits/s speed=0.0145x elapsed=0:02:05.67    \nframe=  112 fps=0.9 q=27.4 size=    1536KiB time=00:00:01.81 bitrate=6926.6kbits/s speed=0.0144x elapsed=0:02:06.20    \nframe=  112 fps=0.9 q=27.4 size=    1536KiB time=00:00:01.83 bitrate=6863.6kbits/s speed=0.0145x elapsed=0:02:06.74    \nframe=  112 fps=0.9 q=27.4 size=    1536KiB time=00:00:01.83 bitrate=6863.6kbits/s speed=0.0144x elapsed=0:02:07.26    \nframe=  113 fps=0.9 q=24.1 size=    1536KiB time=00:00:01.85 bitrate=6801.8kbits/s speed=0.0145x elapsed=0:02:07.79    \nframe=  113 fps=0.9 q=24.1 size=    1536KiB time=00:00:01.85 bitrate=6801.8kbits/s speed=0.0144x elapsed=0:02:08.32    \nframe=  113 fps=0.9 q=24.1 size=    1536KiB time=00:00:01.85 bitrate=6801.8kbits/s speed=0.0144x elapsed=0:02:08.86    \nframe=  115 fps=0.9 q=27.5 size=    1792KiB time=00:00:01.88 bitrate=7794.9kbits/s speed=0.0146x elapsed=0:02:09.39    \nframe=  115 fps=0.9 q=27.5 size=    1792KiB time=00:00:01.88 bitrate=7794.9kbits/s speed=0.0145x elapsed=0:02:09.90    \nframe=  116 fps=0.9 q=27.5 size=    1792KiB time=00:00:01.90 bitrate=7726.5kbits/s speed=0.0146x elapsed=0:02:10.42    \nframe=  116 fps=0.9 q=27.5 size=    1792KiB time=00:00:01.90 bitrate=7726.5kbits/s speed=0.0145x elapsed=0:02:10.94    \nframe=  117 fps=0.9 q=25.0 size=    1792KiB time=00:00:01.91 bitrate=7659.3kbits/s speed=0.0146x elapsed=0:02:11.45    \nframe=  118 fps=0.9 q=26.2 size=    1792KiB time=00:00:01.93 bitrate=7593.3kbits/s speed=0.0146x elapsed=0:02:11.97    \nframe=  118 fps=0.9 q=26.2 size=    1792KiB time=00:00:01.93 bitrate=7593.3kbits/s speed=0.0146x elapsed=0:02:12.48    \nframe=  120 fps=0.9 q=27.7 size=    1792KiB time=00:00:01.96 bitrate=7464.6kbits/s speed=0.0148x elapsed=0:02:13.00    \nframe=  122 fps=0.9 q=26.4 size=    1792KiB time=00:00:02.00 bitrate=7340.2kbits/s speed=0.015x elapsed=0:02:13.52    \nframe=  122 fps=0.9 q=26.4 size=    1792KiB time=00:00:02.00 bitrate=7340.2kbits/s speed=0.0149x elapsed=0:02:14.03    \nframe=  124 fps=0.9 q=27.6 size=    1792KiB time=00:00:02.03 bitrate=7219.9kbits/s speed=0.0151x elapsed=0:02:14.55    \nframe=  124 fps=0.9 q=27.6 size=    1792KiB time=00:00:02.03 bitrate=7219.9kbits/s speed=0.0151x elapsed=0:02:15.08    \nframe=  125 fps=0.9 q=25.1 size=    1792KiB time=00:00:02.05 bitrate=7161.2kbits/s speed=0.0151x elapsed=0:02:15.59    \nframe=  126 fps=0.9 q=26.4 size=    1792KiB time=00:00:02.06 bitrate=7103.4kbits/s speed=0.0152x elapsed=0:02:16.11    \nframe=  126 fps=0.9 q=26.4 size=    1792KiB time=00:00:02.06 bitrate=7103.4kbits/s speed=0.0151x elapsed=0:02:16.63    \nframe=  128 fps=0.9 q=27.7 size=    1792KiB time=00:00:02.10 bitrate=6990.7kbits/s speed=0.0153x elapsed=0:02:17.14    \nframe=  129 fps=0.9 q=25.2 size=    1792KiB time=00:00:02.11 bitrate=6935.6kbits/s speed=0.0154x elapsed=0:02:17.66    \nframe=  130 fps=0.9 q=26.2 size=    2048KiB time=00:00:02.13 bitrate=7864.5kbits/s speed=0.0154x elapsed=0:02:18.22    \nframe=  132 fps=1.0 q=27.8 size=    2048KiB time=00:00:02.16 bitrate=7743.5kbits/s speed=0.0156x elapsed=0:02:18.73    \nframe=  132 fps=0.9 q=27.8 size=    2048KiB time=00:00:02.16 bitrate=7743.5kbits/s speed=0.0156x elapsed=0:02:19.25    \nframe=  133 fps=1.0 q=25.3 size=    2048KiB time=00:00:02.18 bitrate=7684.4kbits/s speed=0.0156x elapsed=0:02:19.77    \nframe=  134 fps=1.0 q=26.4 size=    2048KiB time=00:00:02.20 bitrate=7626.2kbits/s speed=0.0157x elapsed=0:02:20.29    \nframe=  134 fps=1.0 q=26.4 size=    2048KiB time=00:00:02.20 bitrate=7626.2kbits/s speed=0.0156x elapsed=0:02:20.82    \nframe=  136 fps=1.0 q=27.9 size=    2048KiB time=00:00:02.23 bitrate=7512.3kbits/s speed=0.0158x elapsed=0:02:21.32    \nframe=  137 fps=1.0 q=25.4 size=    2048KiB time=00:00:02.25 bitrate=7456.7kbits/s speed=0.0159x elapsed=0:02:21.84    \nframe=  138 fps=1.0 q=26.5 size=    2048KiB time=00:00:02.26 bitrate=7401.9kbits/s speed=0.0159x elapsed=0:02:22.37    \nframe=  139 fps=1.0 q=27.9 size=    2048KiB time=00:00:02.28 bitrate=7347.8kbits/s speed=0.016x elapsed=0:02:22.90    \nframe=  140 fps=1.0 q=27.9 size=    2048KiB time=00:00:02.30 bitrate=7294.6kbits/s speed=0.016x elapsed=0:02:23.42    \nframe=  140 fps=1.0 q=27.9 size=    2048KiB time=00:00:02.30 bitrate=7294.6kbits/s speed=0.016x elapsed=0:02:23.94    \nframe=  141 fps=1.0 q=25.5 size=    2048KiB time=00:00:02.31 bitrate=7242.1kbits/s speed=0.016x elapsed=0:02:24.46    \nframe=  142 fps=1.0 q=26.6 size=    2048KiB time=00:00:02.33 bitrate=7190.4kbits/s speed=0.0161x elapsed=0:02:24.98    \nframe=  143 fps=1.0 q=28.1 size=    2048KiB time=00:00:02.35 bitrate=7139.4kbits/s speed=0.0162x elapsed=0:02:25.50    \nframe=  145 fps=1.0 q=25.5 size=    2304KiB time=00:00:02.38 bitrate=7919.5kbits/s speed=0.0163x elapsed=0:02:26.02    \nframe=  145 fps=1.0 q=25.5 size=    2304KiB time=00:00:02.38 bitrate=7919.5kbits/s speed=0.0163x elapsed=0:02:26.54    \nframe=  146 fps=1.0 q=26.7 size=    2304KiB time=00:00:02.40 bitrate=7864.5kbits/s speed=0.0163x elapsed=0:02:27.06    \nframe=  148 fps=1.0 q=28.1 size=    2304KiB time=00:00:02.43 bitrate=7756.7kbits/s speed=0.0165x elapsed=0:02:27.57    \nframe=  148 fps=1.0 q=28.1 size=    2304KiB time=00:00:02.43 bitrate=7756.7kbits/s speed=0.0164x elapsed=0:02:28.10    \nframe=  149 fps=1.0 q=25.8 size=    2304KiB time=00:00:02.45 bitrate=7704.0kbits/s speed=0.0165x elapsed=0:02:28.61    \nframe=  149 fps=1.0 q=25.8 size=    2304KiB time=00:00:02.45 bitrate=7704.0kbits/s speed=0.0164x elapsed=0:02:29.13    \nframe=  150 fps=1.0 q=26.8 size=    2304KiB time=00:00:02.46 bitrate=7651.9kbits/s speed=0.0165x elapsed=0:02:29.66    \nframe=  151 fps=1.0 q=28.2 size=    2304KiB time=00:00:02.46 bitrate=7651.9kbits/s speed=0.0164x elapsed=0:02:30.18    \nframe=  152 fps=1.0 q=28.2 size=    2304KiB time=00:00:02.50 bitrate=7549.9kbits/s speed=0.0166x elapsed=0:02:30.71    \nframe=  153 fps=1.0 q=25.5 size=    2304KiB time=00:00:02.51 bitrate=7499.9kbits/s speed=0.0166x elapsed=0:02:31.22    \nframe=  154 fps=1.0 q=26.8 size=    2304KiB time=00:00:02.53 bitrate=7450.5kbits/s speed=0.0167x elapsed=0:02:31.74    \nframe=  154 fps=1.0 q=26.8 size=    2304KiB time=00:00:02.53 bitrate=7450.5kbits/s speed=0.0166x elapsed=0:02:32.27    \nframe=  154 fps=1.0 q=26.8 size=    2304KiB time=00:00:02.53 bitrate=7450.5kbits/s speed=0.0166x elapsed=0:02:32.80    \nframe=  156 fps=1.0 q=28.2 size=    2304KiB time=00:00:02.56 bitrate=7353.8kbits/s speed=0.0167x elapsed=0:02:33.32    \nframe=  157 fps=1.0 q=25.5 size=    2304KiB time=00:00:02.58 bitrate=7306.3kbits/s speed=0.0168x elapsed=0:02:33.83    \nframe=  157 fps=1.0 q=25.5 size=    2304KiB time=00:00:02.58 bitrate=7306.3kbits/s speed=0.0167x elapsed=0:02:34.35    \nframe=  158 fps=1.0 q=26.8 size=    2304KiB time=00:00:02.60 bitrate=7259.5kbits/s speed=0.0168x elapsed=0:02:34.87    \nframe=  158 fps=1.0 q=26.8 size=    2304KiB time=00:00:02.60 bitrate=7259.5kbits/s speed=0.0167x elapsed=0:02:35.40    \nframe=  160 fps=1.0 q=28.3 size=    2560KiB time=00:00:02.63 bitrate=7964.0kbits/s speed=0.0169x elapsed=0:02:35.90    \nframe=  160 fps=1.0 q=28.3 size=    2560KiB time=00:00:02.63 bitrate=7964.0kbits/s speed=0.0168x elapsed=0:02:36.42    \nframe=  161 fps=1.0 q=25.6 size=    2560KiB time=00:00:02.65 bitrate=7913.9kbits/s speed=0.0169x elapsed=0:02:36.94    \nframe=  161 fps=1.0 q=25.6 size=    2560KiB time=00:00:02.65 bitrate=7913.9kbits/s speed=0.0168x elapsed=0:02:37.46    \nframe=  161 fps=1.0 q=25.6 size=    2560KiB time=00:00:02.65 bitrate=7913.9kbits/s speed=0.0168x elapsed=0:02:37.97    \nframe=  163 fps=1.0 q=28.3 size=    2560KiB time=00:00:02.68 bitrate=7815.6kbits/s speed=0.0169x elapsed=0:02:38.49    \nframe=  164 fps=1.0 q=28.3 size=    2560KiB time=00:00:02.70 bitrate=7767.4kbits/s speed=0.017x elapsed=0:02:39.01    \nframe=  164 fps=1.0 q=28.3 size=    2560KiB time=00:00:02.70 bitrate=7767.4kbits/s speed=0.0169x elapsed=0:02:39.52    \nframe=  165 fps=1.0 q=25.7 size=    2560KiB time=00:00:02.71 bitrate=7719.7kbits/s speed=0.017x elapsed=0:02:40.03    \nframe=  165 fps=1.0 q=25.7 size=    2560KiB time=00:00:02.71 bitrate=7719.7kbits/s speed=0.0169x elapsed=0:02:40.57    \nframe=  165 fps=1.0 q=25.7 size=    2560KiB time=00:00:02.71 bitrate=7719.7kbits/s speed=0.0169x elapsed=0:02:41.11    \nframe=  166 fps=1.0 q=27.0 size=    2560KiB time=00:00:02.73 bitrate=7672.6kbits/s speed=0.0169x elapsed=0:02:41.66    \nframe=  167 fps=1.0 q=28.3 size=    2560KiB time=00:00:02.75 bitrate=7626.1kbits/s speed=0.017x elapsed=0:02:42.18    \nframe=  167 fps=1.0 q=28.3 size=    2560KiB time=00:00:02.75 bitrate=7626.1kbits/s speed=0.0169x elapsed=0:02:42.69    \nframe=  168 fps=1.0 q=28.3 size=    2560KiB time=00:00:02.76 bitrate=7580.2kbits/s speed=0.017x elapsed=0:02:43.22    \nframe=  169 fps=1.0 q=25.4 size=    2560KiB time=00:00:02.78 bitrate=7534.8kbits/s speed=0.017x elapsed=0:02:43.73    \nframe=  170 fps=1.0 q=26.9 size=    2560KiB time=00:00:02.78 bitrate=7534.8kbits/s speed=0.0169x elapsed=0:02:44.28    \nframe=  170 fps=1.0 q=26.9 size=    2560KiB time=00:00:02.80 bitrate=7490.0kbits/s speed=0.017x elapsed=0:02:44.81    \nframe=  172 fps=1.0 q=28.3 size=    2560KiB time=00:00:02.81 bitrate=7445.6kbits/s speed=0.017x elapsed=0:02:45.31    \nframe=  173 fps=1.0 q=25.4 size=    2816KiB time=00:00:02.85 bitrate=8094.4kbits/s speed=0.0172x elapsed=0:02:45.85    \nframe=  174 fps=1.0 q=26.8 size=    2816KiB time=00:00:02.86 bitrate=8047.3kbits/s speed=0.0172x elapsed=0:02:46.37    \nframe=  174 fps=1.0 q=26.8 size=    2816KiB time=00:00:02.86 bitrate=8047.3kbits/s speed=0.0172x elapsed=0:02:46.89    \nframe=  175 fps=1.0 q=28.3 size=    2816KiB time=00:00:02.88 bitrate=8000.8kbits/s speed=0.0172x elapsed=0:02:47.43    \nframe=  176 fps=1.0 q=28.2 size=    2816KiB time=00:00:02.90 bitrate=7954.8kbits/s speed=0.0173x elapsed=0:02:47.95    \nframe=  177 fps=1.1 q=25.4 size=    2816KiB time=00:00:02.91 bitrate=7909.4kbits/s speed=0.0173x elapsed=0:02:48.50    \nframe=  178 fps=1.1 q=26.8 size=    2816KiB time=00:00:02.93 bitrate=7864.4kbits/s speed=0.0174x elapsed=0:02:49.03    \nframe=  178 fps=1.0 q=26.8 size=    2816KiB time=00:00:02.93 bitrate=7864.4kbits/s speed=0.0173x elapsed=0:02:49.56    \nframe=  179 fps=1.1 q=28.2 size=    2816KiB time=00:00:02.95 bitrate=7820.0kbits/s speed=0.0173x elapsed=0:02:50.08    \nframe=  180 fps=1.1 q=28.2 size=    2816KiB time=00:00:02.96 bitrate=7776.1kbits/s speed=0.0174x elapsed=0:02:50.62    \nframe=  180 fps=1.1 q=28.2 size=    2816KiB time=00:00:02.96 bitrate=7776.1kbits/s speed=0.0173x elapsed=0:02:51.12    \nframe=  180 fps=1.0 q=28.2 size=    2816KiB time=00:00:02.96 bitrate=7776.1kbits/s speed=0.0173x elapsed=0:02:51.64    \nframe=  182 fps=1.1 q=26.8 size=    2816KiB time=00:00:03.00 bitrate=7689.7kbits/s speed=0.0174x elapsed=0:02:52.17    \nframe=  182 fps=1.1 q=26.8 size=    2816KiB time=00:00:03.00 bitrate=7689.7kbits/s speed=0.0174x elapsed=0:02:52.68    \nframe=  183 fps=1.1 q=28.1 size=    2816KiB time=00:00:03.01 bitrate=7647.2kbits/s speed=0.0174x elapsed=0:02:53.20    \nframe=  183 fps=1.1 q=28.1 size=    2816KiB time=00:00:03.01 bitrate=7647.2kbits/s speed=0.0174x elapsed=0:02:53.73    \nframe=  184 fps=1.1 q=24.6 size=    2816KiB time=00:00:03.03 bitrate=7605.2kbits/s speed=0.0174x elapsed=0:02:54.25    \nframe=  185 fps=1.1 q=26.5 size=    2816KiB time=00:00:03.05 bitrate=7563.6kbits/s speed=0.0175x elapsed=0:02:54.78    \nframe=  186 fps=1.1 q=28.0 size=    2816KiB time=00:00:03.06 bitrate=7522.5kbits/s speed=0.0175x elapsed=0:02:55.31    \nframe=  187 fps=1.1 q=27.9 size=    2816KiB time=00:00:03.08 bitrate=7481.8kbits/s speed=0.0175x elapsed=0:02:55.83    \nframe=  188 fps=1.1 q=24.5 size=    2816KiB time=00:00:03.10 bitrate=7441.6kbits/s speed=0.0176x elapsed=0:02:56.35    \nframe=  189 fps=1.1 q=26.7 size=    3072KiB time=00:00:03.11 bitrate=8074.7kbits/s speed=0.0176x elapsed=0:02:56.87    \nframe=  189 fps=1.1 q=26.7 size=    3072KiB time=00:00:03.11 bitrate=8074.7kbits/s speed=0.0176x elapsed=0:02:57.41    \nframe=  191 fps=1.1 q=27.8 size=    3072KiB time=00:00:03.15 bitrate=7989.3kbits/s speed=0.0177x elapsed=0:02:57.93    \nframe=  191 fps=1.1 q=27.8 size=    3072KiB time=00:00:03.15 bitrate=7989.3kbits/s speed=0.0177x elapsed=0:02:58.44    \nframe=  192 fps=1.1 q=24.5 size=    3072KiB time=00:00:03.16 bitrate=7947.2kbits/s speed=0.0177x elapsed=0:02:58.96    \nframe=  193 fps=1.1 q=25.4 size=    3072KiB time=00:00:03.18 bitrate=7905.6kbits/s speed=0.0177x elapsed=0:02:59.47    \nframe=  193 fps=1.1 q=25.4 size=    3072KiB time=00:00:03.18 bitrate=7905.6kbits/s speed=0.0177x elapsed=0:02:59.98    \nframe=  195 fps=1.1 q=27.9 size=    3072KiB time=00:00:03.21 bitrate=7823.7kbits/s speed=0.0178x elapsed=0:03:00.51    \nframe=  196 fps=1.1 q=27.9 size=    3072KiB time=00:00:03.23 bitrate=7783.4kbits/s speed=0.0179x elapsed=0:03:01.05    \nframe=  196 fps=1.1 q=27.9 size=    3072KiB time=00:00:03.23 bitrate=7783.4kbits/s speed=0.0178x elapsed=0:03:01.60    \nframe=  197 fps=1.1 q=24.1 size=    3072KiB time=00:00:03.25 bitrate=7743.4kbits/s speed=0.0178x elapsed=0:03:02.11    \nframe=  198 fps=1.1 q=26.1 size=    3072KiB time=00:00:03.25 bitrate=7743.4kbits/s speed=0.0178x elapsed=0:03:02.66    \nframe=  198 fps=1.1 q=26.1 size=    3072KiB time=00:00:03.26 bitrate=7703.9kbits/s speed=0.0178x elapsed=0:03:03.19    \nframe=  198 fps=1.1 q=26.1 size=    3072KiB time=00:00:03.26 bitrate=7703.9kbits/s speed=0.0178x elapsed=0:03:03.71    \nframe=  200 fps=1.1 q=27.7 size=    3072KiB time=00:00:03.30 bitrate=7626.1kbits/s speed=0.0179x elapsed=0:03:04.27    \nframe=  200 fps=1.1 q=27.7 size=    3072KiB time=00:00:03.30 bitrate=7626.1kbits/s speed=0.0179x elapsed=0:03:04.81    \nframe=  201 fps=1.1 q=23.7 size=    3072KiB time=00:00:03.31 bitrate=7587.8kbits/s speed=0.0179x elapsed=0:03:05.33    \nframe=  201 fps=1.1 q=23.7 size=    3072KiB time=00:00:03.31 bitrate=7587.8kbits/s speed=0.0178x elapsed=0:03:05.86    \nframe=  201 fps=1.1 q=23.7 size=    3072KiB time=00:00:03.31 bitrate=7587.8kbits/s speed=0.0178x elapsed=0:03:06.39    \nframe=  202 fps=1.1 q=25.9 size=    3072KiB time=00:00:03.33 bitrate=7549.9kbits/s speed=0.0178x elapsed=0:03:06.91    \nframe=  203 fps=1.1 q=27.8 size=    3072KiB time=00:00:03.35 bitrate=7512.3kbits/s speed=0.0179x elapsed=0:03:07.43    \nframe=  203 fps=1.1 q=27.8 size=    3072KiB time=00:00:03.35 bitrate=7512.3kbits/s speed=0.0178x elapsed=0:03:07.97    \nframe=  204 fps=1.1 q=27.6 size=    3072KiB time=00:00:03.36 bitrate=7475.1kbits/s speed=0.0179x elapsed=0:03:08.49    \nframe=  204 fps=1.1 q=27.6 size=    3072KiB time=00:00:03.36 bitrate=7475.1kbits/s speed=0.0178x elapsed=0:03:09.02    \nframe=  205 fps=1.1 q=23.5 size=    3072KiB time=00:00:03.38 bitrate=7438.3kbits/s speed=0.0178x elapsed=0:03:09.55    \nframe=  206 fps=1.1 q=26.1 size=    3328KiB time=00:00:03.40 bitrate=8018.6kbits/s speed=0.0179x elapsed=0:03:10.07    \nframe=  206 fps=1.1 q=26.1 size=    3328KiB time=00:00:03.40 bitrate=8018.6kbits/s speed=0.0178x elapsed=0:03:10.59    \nframe=  208 fps=1.1 q=27.6 size=    3328KiB time=00:00:03.43 bitrate=7940.8kbits/s speed=0.018x elapsed=0:03:11.13    \nframe=  209 fps=1.1 q=23.4 size=    3328KiB time=00:00:03.45 bitrate=7902.4kbits/s speed=0.018x elapsed=0:03:11.64    \nframe=  209 fps=1.1 q=23.4 size=    3328KiB time=00:00:03.45 bitrate=7902.4kbits/s speed=0.018x elapsed=0:03:12.16    \nframe=  210 fps=1.1 q=25.9 size=    3328KiB time=00:00:03.46 bitrate=7864.4kbits/s speed=0.018x elapsed=0:03:12.70    \nframe=  210 fps=1.1 q=25.9 size=    3328KiB time=00:00:03.46 bitrate=7864.4kbits/s speed=0.0179x elapsed=0:03:13.22    \nframe=  212 fps=1.1 q=27.4 size=    3328KiB time=00:00:03.50 bitrate=7789.5kbits/s speed=0.0181x elapsed=0:03:13.75    \nframe=  213 fps=1.1 q=23.5 size=    3328KiB time=00:00:03.51 bitrate=7752.6kbits/s speed=0.0181x elapsed=0:03:14.28    \nframe=  213 fps=1.1 q=23.5 size=    3328KiB time=00:00:03.51 bitrate=7752.6kbits/s speed=0.0181x elapsed=0:03:14.81    \nframe=  214 fps=1.1 q=25.9 size=    3328KiB time=00:00:03.53 bitrate=7716.0kbits/s speed=0.0181x elapsed=0:03:15.33    \nframe=  214 fps=1.1 q=25.9 size=    3328KiB time=00:00:03.53 bitrate=7716.0kbits/s speed=0.018x elapsed=0:03:15.89    \nframe=  215 fps=1.1 q=27.4 size=    3328KiB time=00:00:03.55 bitrate=7679.8kbits/s speed=0.0181x elapsed=0:03:16.41    \nframe=  217 fps=1.1 q=23.2 size=    3328KiB time=00:00:03.58 bitrate=7608.4kbits/s speed=0.0182x elapsed=0:03:16.94    \nframe=  218 fps=1.1 q=25.8 size=    3328KiB time=00:00:03.60 bitrate=7573.1kbits/s speed=0.0182x elapsed=0:03:17.47    \nframe=  218 fps=1.1 q=25.8 size=    3328KiB time=00:00:03.60 bitrate=7573.1kbits/s speed=0.0182x elapsed=0:03:17.98    \nframe=  219 fps=1.1 q=27.2 size=    3328KiB time=00:00:03.61 bitrate=7538.2kbits/s speed=0.0182x elapsed=0:03:18.52    \nframe=  220 fps=1.1 q=27.2 size=    3328KiB time=00:00:03.63 bitrate=7503.7kbits/s speed=0.0183x elapsed=0:03:19.04    \nframe=  221 fps=1.1 q=22.2 size=    3328KiB time=00:00:03.65 bitrate=7469.4kbits/s speed=0.0183x elapsed=0:03:19.57    \nframe=  222 fps=1.1 q=25.2 size=    3584KiB time=00:00:03.66 bitrate=8007.4kbits/s speed=0.0183x elapsed=0:03:20.10    \nframe=  223 fps=1.1 q=27.1 size=    3584KiB time=00:00:03.68 bitrate=7971.2kbits/s speed=0.0184x elapsed=0:03:20.62    \nframe=  224 fps=1.1 q=27.2 size=    3584KiB time=00:00:03.70 bitrate=7935.3kbits/s speed=0.0184x elapsed=0:03:21.13    \nframe=  225 fps=1.1 q=22.2 size=    3584KiB time=00:00:03.71 bitrate=7899.7kbits/s speed=0.0184x elapsed=0:03:21.65    \nframe=  225 fps=1.1 q=22.2 size=    3584KiB time=00:00:03.71 bitrate=7899.7kbits/s speed=0.0184x elapsed=0:03:22.16    \nframe=  226 fps=1.1 q=24.8 size=    3584KiB time=00:00:03.73 bitrate=7864.4kbits/s speed=0.0184x elapsed=0:03:22.67    \nframe=  226 fps=1.1 q=24.8 size=    3584KiB time=00:00:03.73 bitrate=7864.4kbits/s speed=0.0184x elapsed=0:03:23.19    \nframe=  226 fps=1.1 q=24.8 size=    3584KiB time=00:00:03.73 bitrate=7864.4kbits/s speed=0.0183x elapsed=0:03:23.74    \nframe=  229 fps=1.1 q=22.6 size=    3584KiB time=00:00:03.78 bitrate=7760.5kbits/s speed=0.0185x elapsed=0:03:24.26    \nframe=  229 fps=1.1 q=22.6 size=    3584KiB time=00:00:03.78 bitrate=7760.5kbits/s speed=0.0185x elapsed=0:03:24.80    \nframe=  230 fps=1.1 q=25.2 size=    3584KiB time=00:00:03.80 bitrate=7726.4kbits/s speed=0.0185x elapsed=0:03:25.36    \nframe=  231 fps=1.1 q=27.2 size=    3584KiB time=00:00:03.81 bitrate=7692.7kbits/s speed=0.0185x elapsed=0:03:25.89    \nframe=  232 fps=1.1 q=27.2 size=    3584KiB time=00:00:03.83 bitrate=7659.3kbits/s speed=0.0186x elapsed=0:03:26.42    \nframe=  234 fps=1.1 q=25.2 size=    3584KiB time=00:00:03.86 bitrate=7593.2kbits/s speed=0.0187x elapsed=0:03:26.95    \nframe=  234 fps=1.1 q=25.2 size=    3584KiB time=00:00:03.86 bitrate=7593.2kbits/s speed=0.0186x elapsed=0:03:27.47    \nframe=  236 fps=1.1 q=27.1 size=    3584KiB time=00:00:03.90 bitrate=7528.3kbits/s speed=0.0187x elapsed=0:03:28.01    \nframe=  237 fps=1.1 q=22.6 size=    3584KiB time=00:00:03.91 bitrate=7496.3kbits/s speed=0.0188x elapsed=0:03:28.53    \nframe=  238 fps=1.1 q=25.0 size=    3840KiB time=00:00:03.93 bitrate=7997.7kbits/s speed=0.0188x elapsed=0:03:29.06    \nframe=  238 fps=1.1 q=25.0 size=    3840KiB time=00:00:03.93 bitrate=7997.7kbits/s speed=0.0188x elapsed=0:03:29.58    \nframe=  239 fps=1.1 q=26.9 size=    3840KiB time=00:00:03.95 bitrate=7964.0kbits/s speed=0.0188x elapsed=0:03:30.10    \nframe=  240 fps=1.1 q=27.1 size=    3840KiB time=00:00:03.96 bitrate=7930.5kbits/s speed=0.0188x elapsed=0:03:30.62    \nframe=  241 fps=1.1 q=22.9 size=    3840KiB time=00:00:03.98 bitrate=7897.3kbits/s speed=0.0189x elapsed=0:03:31.15    \nframe=  242 fps=1.1 q=24.8 size=    3840KiB time=00:00:04.00 bitrate=7864.4kbits/s speed=0.0189x elapsed=0:03:31.69    \nframe=  242 fps=1.1 q=24.8 size=    3840KiB time=00:00:04.00 bitrate=7864.4kbits/s speed=0.0188x elapsed=0:03:32.21    \nframe=  242 fps=1.1 q=24.8 size=    3840KiB time=00:00:04.00 bitrate=7864.4kbits/s speed=0.0188x elapsed=0:03:32.73    \nframe=  242 fps=1.1 q=24.8 size=    3840KiB time=00:00:04.00 bitrate=7864.4kbits/s speed=0.0188x elapsed=0:03:33.25    \nframe=  244 fps=1.1 q=26.8 size=    3840KiB time=00:00:04.03 bitrate=7799.4kbits/s speed=0.0189x elapsed=0:03:33.78    \nframe=  245 fps=1.1 q=22.9 size=    3840KiB time=00:00:04.05 bitrate=7767.3kbits/s speed=0.0189x elapsed=0:03:34.31    \nframe=  245 fps=1.1 q=22.9 size=    3840KiB time=00:00:04.05 bitrate=7767.3kbits/s speed=0.0189x elapsed=0:03:34.83    \nframe=  246 fps=1.1 q=24.6 size=    3840KiB time=00:00:04.06 bitrate=7735.5kbits/s speed=0.0189x elapsed=0:03:35.35    \nframe=  246 fps=1.1 q=24.6 size=    3840KiB time=00:00:04.06 bitrate=7735.5kbits/s speed=0.0188x elapsed=0:03:35.87    \nframe=  248 fps=1.1 q=26.8 size=    3840KiB time=00:00:04.10 bitrate=7672.6kbits/s speed=0.0189x elapsed=0:03:36.39    \nframe=  249 fps=1.1 q=21.0 size=    3840KiB time=00:00:04.11 bitrate=7641.5kbits/s speed=0.019x elapsed=0:03:36.91    \nframe=  249 fps=1.1 q=21.0 size=    3840KiB time=00:00:04.11 bitrate=7641.5kbits/s speed=0.0189x elapsed=0:03:37.42    \nframe=  250 fps=1.1 q=24.6 size=    3840KiB time=00:00:04.13 bitrate=7610.7kbits/s speed=0.019x elapsed=0:03:37.95    \nframe=  252 fps=1.2 q=23.7 size=    4096KiB time=00:00:04.16 bitrate=8053.1kbits/s speed=0.0191x elapsed=0:03:38.46    \nframe=  253 fps=1.2 q=24.5 size=    4096KiB time=00:00:04.18 bitrate=8021.1kbits/s speed=0.0191x elapsed=0:03:38.97    \nframe=  253 fps=1.2 q=24.5 size=    4096KiB time=00:00:04.18 bitrate=8021.1kbits/s speed=0.0191x elapsed=0:03:39.50    \nframe=  255 fps=1.2 q=26.9 size=    4096KiB time=00:00:04.21 bitrate=7957.7kbits/s speed=0.0192x elapsed=0:03:40.02    \nframe=  256 fps=1.2 q=23.5 size=    4096KiB time=00:00:04.23 bitrate=7926.3kbits/s speed=0.0192x elapsed=0:03:40.54    \nframe=  257 fps=1.2 q=24.7 size=    4096KiB time=00:00:04.25 bitrate=7895.2kbits/s speed=0.0192x elapsed=0:03:41.07    \nframe=  257 fps=1.2 q=24.7 size=    4096KiB time=00:00:04.25 bitrate=7895.2kbits/s speed=0.0192x elapsed=0:03:41.59    \nframe=  257 fps=1.2 q=24.7 size=    4096KiB time=00:00:04.25 bitrate=7895.2kbits/s speed=0.0191x elapsed=0:03:42.12    \nframe=  259 fps=1.2 q=27.1 size=    4096KiB time=00:00:04.28 bitrate=7833.8kbits/s speed=0.0192x elapsed=0:03:42.67    \nframe=  260 fps=1.2 q=23.6 size=    4096KiB time=00:00:04.30 bitrate=7803.4kbits/s speed=0.0193x elapsed=0:03:43.20    \nframe=  261 fps=1.2 q=24.8 size=    4096KiB time=00:00:04.31 bitrate=7773.3kbits/s speed=0.0193x elapsed=0:03:43.73    \nframe=  261 fps=1.2 q=24.8 size=    4096KiB time=00:00:04.31 bitrate=7773.3kbits/s speed=0.0192x elapsed=0:03:44.26    \nframe=  263 fps=1.2 q=27.1 size=    4096KiB time=00:00:04.35 bitrate=7713.7kbits/s speed=0.0194x elapsed=0:03:44.79    \nframe=  263 fps=1.2 q=27.1 size=    4096KiB time=00:00:04.35 bitrate=7713.7kbits/s speed=0.0193x elapsed=0:03:45.32    \nframe=  264 fps=1.2 q=23.9 size=    4096KiB time=00:00:04.36 bitrate=7684.3kbits/s speed=0.0193x elapsed=0:03:45.83    \nframe=  264 fps=1.2 q=23.9 size=    4096KiB time=00:00:04.36 bitrate=7684.3kbits/s speed=0.0193x elapsed=0:03:46.35    \nframe=  265 fps=1.2 q=25.1 size=    4096KiB time=00:00:04.38 bitrate=7655.1kbits/s speed=0.0193x elapsed=0:03:46.88    \nframe=  265 fps=1.2 q=25.1 size=    4096KiB time=00:00:04.38 bitrate=7655.1kbits/s speed=0.0193x elapsed=0:03:47.41    \nframe=  266 fps=1.2 q=27.1 size=    4096KiB time=00:00:04.40 bitrate=7626.1kbits/s speed=0.0193x elapsed=0:03:47.93    \nframe=  266 fps=1.2 q=27.1 size=    4096KiB time=00:00:04.40 bitrate=7626.1kbits/s speed=0.0193x elapsed=0:03:48.46    \nframe=  267 fps=1.2 q=27.0 size=    4096KiB time=00:00:04.41 bitrate=7597.3kbits/s speed=0.0193x elapsed=0:03:48.96    \nframe=  268 fps=1.2 q=24.0 size=    4352KiB time=00:00:04.43 bitrate=8041.8kbits/s speed=0.0193x elapsed=0:03:49.50    \nframe=  268 fps=1.2 q=24.0 size=    4352KiB time=00:00:04.43 bitrate=8041.8kbits/s speed=0.0193x elapsed=0:03:50.06    \nframe=  269 fps=1.2 q=25.4 size=    4352KiB time=00:00:04.45 bitrate=8011.7kbits/s speed=0.0193x elapsed=0:03:50.60    \nframe=  269 fps=1.2 q=25.4 size=    4352KiB time=00:00:04.45 bitrate=8011.7kbits/s speed=0.0193x elapsed=0:03:51.12    \nframe=  270 fps=1.2 q=27.1 size=    4352KiB time=00:00:04.46 bitrate=7981.8kbits/s speed=0.0193x elapsed=0:03:51.65    \nframe=  271 fps=1.2 q=27.3 size=    4352KiB time=00:00:04.48 bitrate=7952.1kbits/s speed=0.0193x elapsed=0:03:52.19    \nframe=  271 fps=1.2 q=27.3 size=    4352KiB time=00:00:04.48 bitrate=7952.1kbits/s speed=0.0193x elapsed=0:03:52.73    \nframe=  272 fps=1.2 q=23.4 size=    4352KiB time=00:00:04.50 bitrate=7922.7kbits/s speed=0.0193x elapsed=0:03:53.25    \nframe=  272 fps=1.2 q=23.4 size=    4352KiB time=00:00:04.50 bitrate=7922.7kbits/s speed=0.0192x elapsed=0:03:53.76    \nframe=  273 fps=1.2 q=25.4 size=    4352KiB time=00:00:04.51 bitrate=7893.4kbits/s speed=0.0193x elapsed=0:03:54.28    \nframe=  275 fps=1.2 q=27.2 size=    4352KiB time=00:00:04.55 bitrate=7835.6kbits/s speed=0.0194x elapsed=0:03:54.80    \nframe=  275 fps=1.2 q=27.2 size=    4352KiB time=00:00:04.55 bitrate=7835.6kbits/s speed=0.0193x elapsed=0:03:55.32    \nframe=  276 fps=1.2 q=24.2 size=    4352KiB time=00:00:04.56 bitrate=7807.0kbits/s speed=0.0194x elapsed=0:03:55.84    \nframe=  277 fps=1.2 q=25.4 size=    4352KiB time=00:00:04.58 bitrate=7778.6kbits/s speed=0.0194x elapsed=0:03:56.36    \nframe=  278 fps=1.2 q=27.3 size=    4352KiB time=00:00:04.60 bitrate=7750.4kbits/s speed=0.0194x elapsed=0:03:56.91    \nframe=  279 fps=1.2 q=27.3 size=    4352KiB time=00:00:04.61 bitrate=7722.4kbits/s speed=0.0194x elapsed=0:03:57.42    \nframe=  280 fps=1.2 q=24.5 size=    4352KiB time=00:00:04.63 bitrate=7694.7kbits/s speed=0.0195x elapsed=0:03:57.94    \nframe=  281 fps=1.2 q=25.6 size=    4352KiB time=00:00:04.65 bitrate=7667.1kbits/s speed=0.0195x elapsed=0:03:58.45    \nframe=  282 fps=1.2 q=27.4 size=    4352KiB time=00:00:04.66 bitrate=7639.7kbits/s speed=0.0195x elapsed=0:03:58.98    \nframe=  284 fps=1.2 q=24.3 size=    4352KiB time=00:00:04.70 bitrate=7585.5kbits/s speed=0.0196x elapsed=0:03:59.51    \nframe=  285 fps=1.2 q=25.7 size=    4608KiB time=00:00:04.71 bitrate=8003.3kbits/s speed=0.0197x elapsed=0:04:00.01    \nframe=  287 fps=1.2 q=27.7 size=    4608KiB time=00:00:04.75 bitrate=7947.2kbits/s speed=0.0197x elapsed=0:04:00.54    \nframe=  288 fps=1.2 q=25.0 size=    4608KiB time=00:00:04.76 bitrate=7919.4kbits/s speed=0.0198x elapsed=0:04:01.07    \nframe=  291 fps=1.2 q=27.6 size=    4608KiB time=00:00:04.81 bitrate=7837.2kbits/s speed=0.0199x elapsed=0:04:01.58    \nframe=  292 fps=1.2 q=27.7 size=    4608KiB time=00:00:04.83 bitrate=7810.2kbits/s speed=0.02x elapsed=0:04:02.10    \nframe=  293 fps=1.2 q=25.1 size=    4608KiB time=00:00:04.85 bitrate=7783.3kbits/s speed=0.02x elapsed=0:04:02.61    \nframe=  295 fps=1.2 q=27.6 size=    4608KiB time=00:00:04.88 bitrate=7730.2kbits/s speed=0.0201x elapsed=0:04:03.13    \nframe=  296 fps=1.2 q=27.7 size=    4608KiB time=00:00:04.90 bitrate=7703.9kbits/s speed=0.0201x elapsed=0:04:03.65    \nframe=  298 fps=1.2 q=26.4 size=    4608KiB time=00:00:04.93 bitrate=7651.8kbits/s speed=0.0202x elapsed=0:04:04.15    \n[mp4 @ 000001cfdebd7a00] Starting second pass: moving the moov atom to the beginning of the file\n[out#0/mp4 @ 000001cfdebd7900] video:4875KiB audio:0KiB subtitle:0KiB other streams:0KiB global headers:2KiB muxing overhead: 0.146025%\nframe=  300 fps=1.2 q=27.8 Lsize=    4882KiB time=00:00:04.96 bitrate=8053.0kbits/s speed=0.0203x elapsed=0:04:04.51    \nx265 [info]: frame I:      2, Avg QP:25.30  kb/s: 9619.68 \nx265 [info]: frame P:     74, Avg QP:24.42  kb/s: 10248.08\nx265 [info]: frame B:    224, Avg QP:27.11  kb/s: 7223.82 \nx265 [info]: Weighted P-Frames: Y:2.7% UV:2.7%\n\nencoded 300 frames in 244.25s (1.23 fps), 7985.78 kb/s, Avg QP:26.44\n",
  "seconds": 244.7579951286316,
  "probe_out": {}
}